# Made in Blockbench 4.11.2
mtllib IceProjectile1.mtl

o cuboid
v 0.5000000000000003 5.551115123125783e-16 5.329070518200751e-15
v -8.881784197001252e-16 0.49999999999999145 -0.7071067811865474
v 0.5000000000000003 5.551115123125783e-16 5.329070518200751e-15
v -8.881784197001252e-16 0.49999999999999145 -0.7071067811865474
v 8.881784197001252e-16 0.5000000000000085 0.7071067811865474
v -0.5000000000000003 0.9999999999999994 -5.329070518200751e-15
v 8.881784197001252e-16 0.5000000000000085 0.7071067811865474
v -0.5000000000000003 0.9999999999999994 -5.329070518200751e-15
vt 0 0.5
vt 0 0.5
vt 0 1
vt 0 1
vt 0 0.5
vt 0 1
vt 0 0.5
vt 0 1
vt 0 0.5
vt 0.5 0.5
vt 0.5 1
vt 0 1
vt 1.03125 -0.03125
vt 1.03125 0.46875
vt 0.53125 0.46875
vt 0.53125 -0.03125
vt 0.5 1
vt 0 1
vt 0.5 1
vt 0 1
vt 0.5 1
vt 0.5 1
vt 0 1
vt 0 1
vn 0 0 0
vn 0 0 0
vn 0.7071067811865469 0.7071067811865482 -9.436895709313835e-15
vn -0.7071067811865469 -0.7071067811865482 9.436895709313835e-15
vn 0 0 0
vn 0 0 0
usemtl m_a60adbbe-da1f-fe91-f3e6-313937d0fe33
f 1/1/1 3/2/1 2/3/1 4/4/1
f 5/5/2 6/6/2 7/7/2 8/8/2
f 5/9/3 1/10/3 2/11/3 6/12/3
f 4/13/4 3/14/4 7/15/4 8/16/4
f 1/17/5 5/18/5 3/19/5 7/20/5
f 2/21/6 4/22/6 6/23/6 8/24/6
o cuboid
v -0.5 0 5.551115123125783e-15
v 9.992007221626409e-16 0.49999999999999123 -0.7071067811865476
v -0.5 0 5.551115123125783e-15
v 9.992007221626409e-16 0.49999999999999123 -0.7071067811865476
v -9.992007221626409e-16 0.5000000000000088 0.7071067811865476
v 0.5 1 -5.551115123125783e-15
v -9.992007221626409e-16 0.5000000000000088 0.7071067811865476
v 0.5 1 -5.551115123125783e-15
vt 0 0.5
vt 0 0.5
vt 0 1
vt 0 1
vt 0 0.5
vt 0 1
vt 0 0.5
vt 0 1
vt 0 0.5
vt 0.5 0.5
vt 0.5 1
vt 0 1
vt 1.03125 -0.03125
vt 1.03125 0.46875
vt 0.53125 0.46875
vt 0.53125 -0.03125
vt 0.5 1
vt 0 1
vt 0.5 1
vt 0 1
vt 0.5 1
vt 0.5 1
vt 0 1
vt 0 1
vn 0 0 0
vn 0 0 0
vn 0.7071067811865476 -0.7071067811865476 9.769962616701378e-15
vn -0.7071067811865476 0.7071067811865476 -9.769962616701378e-15
vn 0 0 0
vn 0 0 0
usemtl m_a60adbbe-da1f-fe91-f3e6-313937d0fe33
f 9/25/7 11/26/7 10/27/7 12/28/7
f 13/29/8 14/30/8 15/31/8 16/32/8
f 13/33/9 9/34/9 10/35/9 14/36/9
f 12/37/10 11/38/10 15/39/10 16/40/10
f 9/41/11 13/42/11 11/43/11 15/44/11
f 10/45/12 12/46/12 14/47/12 16/48/12